<svg xmlns="http://www.w3.org/2000/svg" width="30" viewBox="0 0 30 30" height="30" version="1.0"><defs><clipPath id="a"><path d="M 0.484375 0.707031 L 29.515625 0.707031 L 29.515625 28.289062 L 0.484375 28.289062 Z M 0.484375 0.707031"/></clipPath></defs><g clip-path="url(#a)"><path fill="#F0BC4C" d="M 14.515625 0.707031 C 6.902344 0.707031 0.710938 6.894531 0.710938 14.496094 C 0.710938 22.101562 6.902344 28.289062 14.515625 28.289062 C 22.128906 28.289062 28.324219 22.101562 28.324219 14.496094 C 28.324219 12.945312 28.054688 11.457031 27.578125 10.0625 L 25.339844 12.292969 C 25.488281 13.007812 25.5625 13.742188 25.5625 14.496094 C 25.5625 20.582031 20.605469 25.53125 14.515625 25.53125 C 8.425781 25.53125 3.472656 20.582031 3.472656 14.496094 C 3.472656 8.414062 8.425781 3.464844 14.515625 3.464844 C 16.769531 3.464844 18.867188 4.148438 20.621094 5.3125 L 22.597656 3.335938 C 20.320312 1.691406 17.535156 0.707031 14.515625 0.707031 Z M 27.347656 2.492188 L 13.136719 16.683594 L 8.589844 12.144531 L 6.636719 14.09375 L 13.136719 20.585938 L 29.300781 4.441406 Z M 27.347656 2.492188"/></g></svg>